<?xml version="1.0" standalone="no"?>
<!DOCTYPE svg PUBLIC "-//W3C//DTD SVG 20010904//EN"
 "http://www.w3.org/TR/2001/REC-SVG-20010904/DTD/svg10.dtd">
<svg version="1.0" xmlns="http://www.w3.org/2000/svg"
 width="137.000000pt" height="137.000000pt" viewBox="0 0 137.000000 137.000000"
 preserveAspectRatio="xMidYMid meet">
<metadata>
Created by potrace 1.14, written by Peter Selinger 2001-2017
</metadata>
<g transform="translate(0.000000,137.000000) scale(0.100000,-0.100000)"
fill="#000000" stroke="none">
<path d="M655 1310 l-29 -30 -203 0 c-112 0 -202 -3 -202 -7 6 -35 -3 -50 -25
-48 -26 3 -48 -7 -45 -21 1 -5 1 -19 0 -32 -1 -18 -6 -22 -26 -18 l-25 5 2
-462 3 -462 23 1 c14 1 22 -5 23 -15 1 -9 2 -25 3 -36 1 -15 8 -20 31 -20 24
0 31 -5 35 -25 l5 -25 201 -3 201 -2 28 -30 29 -30 31 30 31 30 199 2 200 3
-2 22 c-2 14 3 23 12 24 8 1 20 3 25 4 6 1 17 3 25 4 11 1 14 11 13 34 -3 29
-1 32 25 31 l27 -1 -2 461 -3 461 -22 -1 c-22 -1 -29 17 -24 61 0 6 -15 10
-34 9 -34 -2 -42 9 -36 49 0 4 -90 7 -201 7 l-202 0 -31 30 -31 30 -29 -30z
m62 -61 c-18 -29 -37 -31 -57 -7 -18 22 -18 24 3 46 l21 22 22 -21 c19 -18 21
-25 11 -40z m-237 -6 c-45 -20 -227 -25 -234 -7 -3 7 -2 14 1 17 2 3 64 5 136
5 126 0 130 -1 97 -15z m645 7 c10 -17 -22 -24 -105 -25 -73 -1 -140 13 -140
29 0 8 240 4 245 -4z m-475 -30 c18 -16 33 -30 35 -30 2 0 17 14 35 30 38 36
54 37 141 7 244 -83 402 -314 386 -562 -10 -147 -59 -257 -162 -361 -78 -79
-178 -136 -277 -156 l-58 -12 -28 32 c-16 18 -32 32 -35 32 -3 0 -20 -14 -36
-32 l-30 -32 -58 12 c-136 28 -276 126 -352 247 -197 311 -53 712 298 832 87
30 103 29 141 -7z m-430 -32 c0 -10 0 -21 0 -25 0 -11 -23 -11 -36 -1 -7 5
-10 17 -7 26 6 24 43 23 43 0z m151 8 c0 -4 -18 -20 -39 -36 -35 -25 -85 -78
-139 -148 -18 -24 -19 -23 -17 45 1 37 2 71 3 74 0 4 15 5 31 3 17 -2 31 1 31
6 1 6 2 20 2 33 1 13 9 24 21 27 29 8 106 5 107 -4z m750 5 c3 -1 6 -11 6 -23
1 -45 3 -48 28 -44 33 6 39 -7 41 -82 l1 -64 -26 34 c-50 65 -104 118 -147
147 -25 16 -40 31 -34 33 8 2 109 2 131 -1z m74 -30 c-2 -14 -11 -17 -44 -12
-16 2 -5 34 15 41 21 8 33 -4 29 -29z m-1042 -139 c-1 -63 -7 -109 -17 -132
-15 -34 -15 -30 -16 97 0 96 3 133 13 136 6 2 14 3 16 0 3 -2 4 -47 4 -101z
m1097 -36 c-1 -127 -1 -130 -16 -96 -10 23 -16 65 -16 120 0 120 0 120 17 114
12 -5 15 -30 15 -138z m-1096 -634 c1 -87 -8 -124 -27 -105 -4 3 -7 65 -7 137
1 127 1 130 16 96 10 -22 16 -70 18 -128z m1091 -101 c-6 -14 -8 -14 -18 0
-16 22 -13 175 4 223 14 38 14 35 17 -84 1 -68 0 -131 -3 -139z m-985 35 c25
-27 65 -62 89 -78 45 -28 45 -28 15 -29 -32 -1 -93 -1 -110 0 -6 1 -10 16 -10
34 1 30 -1 32 -34 32 l-35 0 0 75 -1 74 20 -29 c12 -16 41 -51 66 -79z m936
34 c0 -38 -2 -70 -5 -71 -3 -1 -19 -2 -36 -3 -25 -1 -29 -5 -30 -28 0 -14 -3
-30 -7 -33 -9 -9 -128 -12 -128 -4 0 4 12 15 27 24 45 30 114 97 145 142 16
24 30 43 31 43 1 0 2 -31 3 -70z m-975 -110 c9 -21 1 -30 -26 -30 -17 0 -22 5
-20 18 2 9 4 20 4 23 2 13 36 4 42 -11z m974 -8 c-2 -10 -4 -20 -4 -24 -1 -4
-11 -4 -23 1 -38 14 -27 54 12 44 10 -3 17 -12 15 -21z m-715 -64 c34 -15 30
-16 -95 -15 -119 0 -153 7 -140 27 8 13 200 3 235 -12z m231 0 c19 -21 19 -22
-3 -45 l-22 -23 -23 22 -23 22 22 23 c26 28 26 28 49 1z m413 13 c5 0 3 -7 -3
-15 -9 -11 -40 -14 -126 -14 -117 1 -141 8 -83 24 26 8 170 11 212 5z"/>
<path d="M259 1003 c-8 -42 -2 -134 8 -138 13 -4 20 16 25 70 3 29 5 30 61 33
l57 3 0 -288 0 -289 -31 -11 c-50 -19 -24 -33 62 -33 61 0 79 3 79 14 0 8 -11
17 -25 20 -14 4 -26 12 -26 19 -1 6 -2 137 -3 290 l-1 277 57 0 57 0 6 -55 c5
-37 12 -55 21 -55 11 0 14 18 14 75 l0 75 -180 0 c-99 0 -181 -3 -181 -7z"/>
<path d="M750 937 c0 -59 3 -74 15 -74 10 0 15 10 15 29 0 15 -1 29 -2 31 -1
1 4 12 11 25 10 18 20 22 64 22 l53 0 -2 -282 c-1 -156 -2 -286 -3 -289 0 -4
-12 -10 -26 -13 -14 -4 -25 -13 -25 -22 0 -12 14 -14 82 -12 84 3 115 20 58
31 l-30 7 0 290 0 291 58 -3 57 -3 5 -47 c11 -89 37 -75 34 19 -1 32 -2 61 -3
66 -1 4 -82 7 -181 7 l-180 0 0 -73z"/>
<path d="M604 789 c-2 -4 4 -27 13 -52 l17 -46 -32 -32 c-54 -55 -66 -134 -32
-205 31 -64 101 -88 147 -51 9 6 15 4 19 -7 8 -21 74 -22 74 -1 0 10 -10 15
-26 15 -26 0 -26 1 -19 53 4 28 9 68 12 87 2 19 11 42 20 52 17 19 17 20 -39
23 -39 2 -54 -19 -23 -32 15 -5 16 -19 5 -98 0 -5 -23 51 -49 125 -41 116 -45
136 -32 141 23 9 39 0 43 -24 2 -11 9 -22 16 -25 8 -2 12 10 12 41 l0 45 -61
-1 c-33 -1 -62 -4 -65 -8z m80 -241 l35 -98 -22 -15 c-31 -21 -51 -19 -80 11
-47 47 -48 129 -1 179 14 15 27 26 29 23 2 -2 19 -47 39 -100z"/>
</g>
</svg>
