<?xml version="1.0" standalone="no"?>
<!DOCTYPE svg PUBLIC "-//W3C//DTD SVG 20010904//EN"
 "http://www.w3.org/TR/2001/REC-SVG-20010904/DTD/svg10.dtd">
<svg version="1.0" xmlns="http://www.w3.org/2000/svg"
 width="1076.000000pt" height="1076.000000pt" viewBox="0 0 1076.000000 1076.000000"
 preserveAspectRatio="xMidYMid meet">
<metadata>
Created by potrace 1.14, written by Peter Selinger 2001-2017
</metadata>
<g transform="translate(0.000000,1076.000000) scale(0.100000,-0.100000)"
fill="#000000" stroke="none">
<path d="M5241 10605 c-80 -80 -145 -145 -146 -145 -1 0 -52 -51 -114 -114
l-114 -113 -1656 0 -1656 0 -3 -224 -2 -225 -281 1 c-154 0 -285 -3 -291 -6
-7 -5 -11 -105 -11 -291 l0 -285 -211 2 c-116 0 -217 -1 -223 -3 -10 -3 -13
-778 -13 -3828 0 -3635 1 -3824 18 -3825 9 -1 103 -1 207 -1 105 0 197 -1 206
-4 15 -4 16 -35 17 -277 0 -149 1 -279 1 -287 1 -13 39 -15 283 -14 267 1 317
-4 302 -27 -3 -5 -5 -100 -4 -211 1 -207 5 -227 40 -208 9 5 21 5 28 1 6 -4
31 -6 54 -4 24 2 49 3 56 3 6 0 32 0 57 0 25 0 52 0 60 0 8 0 35 0 60 0 25 0
52 0 60 0 8 0 35 0 60 0 25 0 52 0 60 0 8 0 35 0 60 0 25 0 52 0 60 0 8 0 35
0 60 0 25 0 52 0 60 0 8 0 35 0 60 0 25 0 52 0 60 0 8 0 35 0 60 0 25 0 52 0
60 0 8 0 35 0 60 0 25 0 52 0 60 0 8 0 35 0 60 0 25 0 52 0 60 0 8 0 35 0 60
0 25 0 52 0 60 0 8 0 35 0 60 0 25 0 52 0 60 0 8 0 35 0 60 0 25 0 52 0 60 0
8 0 35 0 60 0 25 0 52 0 60 0 8 0 35 0 60 0 25 0 52 0 60 0 8 0 35 0 60 0 25
0 52 0 60 0 8 0 35 0 60 0 25 0 52 0 60 0 8 0 35 0 60 0 25 0 52 0 60 0 8 0
35 0 60 0 25 0 52 0 60 0 8 0 35 0 60 0 25 0 52 0 60 0 8 0 35 0 60 0 25 0 52
0 60 0 8 0 35 0 60 0 25 0 52 0 60 0 8 0 35 0 60 0 25 0 52 0 60 0 8 0 35 0
60 0 25 0 52 0 60 0 8 0 35 0 60 0 25 0 52 0 60 0 8 0 35 0 60 0 25 0 51 0 58
0 6 0 43 -1 80 -3 l68 -3 257 -257 257 -257 259 259 c143 143 263 258 268 255
4 -3 8 0 8 6 0 7 6 8 18 2 9 -4 35 -7 57 -5 22 2 46 3 53 3 6 0 32 0 57 0 25
0 52 0 60 0 8 0 35 0 60 0 25 0 52 0 60 0 8 0 35 0 60 0 25 0 52 0 60 0 8 0
35 0 60 0 25 0 52 0 60 0 8 0 35 0 60 0 25 0 52 0 60 0 8 0 35 0 60 0 25 0 52
0 60 0 8 0 35 0 60 0 25 0 52 0 60 0 8 0 35 0 60 0 25 0 52 0 60 0 8 0 35 0
60 0 25 0 52 0 60 0 8 0 35 0 60 0 25 0 52 0 60 0 8 0 35 0 60 0 25 0 52 0 60
0 8 0 35 0 60 0 25 0 52 0 60 0 8 0 35 0 60 0 25 0 52 0 60 0 8 0 35 0 60 0
25 0 52 0 60 0 8 0 35 0 60 0 25 0 52 0 60 0 8 0 35 0 60 0 25 0 52 0 60 0 8
0 35 0 60 0 25 0 52 0 60 0 8 0 35 0 60 0 25 0 52 0 60 0 8 0 35 0 60 0 25 0
52 0 60 0 8 0 35 0 60 0 25 0 52 0 60 0 8 0 35 0 60 0 25 0 52 0 60 0 8 0 35
0 60 0 25 0 52 0 60 0 8 0 35 0 60 0 25 0 52 0 60 0 8 0 35 0 60 0 25 0 52 0
60 0 8 0 35 0 60 0 25 0 51 0 58 0 6 0 46 -1 87 -2 l75 -2 0 219 c0 186 2 221
15 226 8 3 138 5 288 5 151 -1 276 3 279 8 3 5 6 135 7 290 l1 281 210 2 c116
1 216 2 223 2 10 1 12 770 10 3828 l-3 3827 -220 0 -220 1 -1 260 c-1 143 -2
274 -3 290 l-1 30 -287 0 -288 0 -3 223 c-2 167 -5 222 -15 223 -6 0 -750 1
-1652 1 l-1640 0 -260 259 -261 259 -143 -145z m349 -295 l200 -200 -201 -201
c-173 -174 -202 -199 -216 -187 -9 7 -100 97 -204 200 l-188 188 200 200 c110
110 202 200 205 200 2 0 94 -90 204 -200z m-1500 -247 c0 -5 -47 -22 -73 -27
-36 -7 -296 -95 -328 -111 -16 -9 -29 -13 -29 -11 0 5 -171 -65 -255 -105
l-50 -23 -813 -1 c-522 -1 -816 3 -819 9 -9 14 -10 249 -1 262 5 7 368 10
1188 10 649 0 1180 -2 1180 -3z m4953 -7 c2 -6 3 -69 2 -141 l0 -130 -810 -1
-810 -1 -130 54 c-148 62 -166 69 -197 83 -41 18 -389 130 -404 130 -8 0 -14
4 -14 8 0 13 2359 10 2363 -2z m-3938 -306 l280 -280 281 281 281 281 49 -7
c55 -7 108 -15 134 -20 10 -2 40 -7 67 -11 26 -5 50 -8 53 -9 3 -1 19 -4 35
-8 17 -4 41 -9 55 -11 64 -12 168 -36 200 -46 22 -7 64 -19 95 -25 21 -5 161
-46 175 -52 8 -4 17 -7 20 -8 16 -4 126 -42 190 -65 98 -36 114 -42 119 -40 2
1 7 -2 10 -7 3 -4 33 -19 66 -32 123 -49 440 -209 542 -274 24 -15 45 -27 48
-27 6 0 295 -190 305 -200 3 -3 48 -37 100 -76 52 -39 106 -81 120 -93 14 -11
40 -33 59 -48 238 -194 516 -486 748 -789 84 -109 193 -273 293 -441 76 -126
270 -512 270 -535 0 -8 4 -18 9 -24 5 -5 22 -45 38 -89 17 -44 34 -89 38 -100
4 -11 9 -24 11 -30 1 -5 18 -55 37 -110 37 -106 75 -231 81 -261 2 -11 12 -48
21 -84 18 -70 23 -91 31 -130 3 -14 12 -59 20 -100 9 -41 17 -86 19 -100 2
-14 6 -34 8 -45 8 -35 22 -143 32 -245 4 -36 8 -76 11 -90 7 -42 17 -288 17
-430 1 -119 -7 -304 -18 -425 -8 -95 -15 -158 -19 -164 -2 -3 -7 -33 -10 -66
-3 -33 -8 -71 -11 -85 -3 -14 -8 -41 -11 -60 -7 -49 -13 -81 -49 -245 -5 -21
-19 -86 -20 -95 0 -3 -7 -16 -14 -29 -10 -18 -10 -22 0 -16 6 5 10 4 7 -1 -9
-17 -21 -49 -25 -67 -7 -39 -80 -263 -94 -289 -5 -10 -9 -22 -9 -27 0 -5 -5
-22 -12 -38 -6 -15 -12 -32 -14 -38 -18 -72 -247 -568 -279 -605 -8 -8 -15
-19 -16 -25 -2 -11 -1 -9 -99 -170 -116 -188 -251 -378 -389 -545 -91 -109
-218 -245 -340 -364 -136 -132 -122 -119 -231 -211 -149 -124 -162 -135 -202
-162 -21 -14 -38 -30 -38 -34 0 -5 -7 -9 -15 -9 -8 0 -15 -3 -15 -7 0 -5 -15
-17 -32 -28 -39 -24 -52 -33 -163 -109 -91 -61 -331 -204 -384 -227 -17 -8
-31 -17 -31 -21 0 -5 -3 -7 -7 -6 -5 1 -60 -23 -123 -54 -63 -30 -131 -62
-150 -70 -130 -57 -163 -70 -174 -72 -6 -1 -16 -4 -21 -8 -31 -19 -411 -142
-507 -164 -10 -2 -26 -6 -35 -9 -18 -5 -129 -30 -174 -39 -13 -3 -35 -8 -49
-11 -43 -9 -217 -38 -313 -52 l-40 -5 -281 280 -281 281 -280 -280 -280 -280
-55 6 c-30 3 -107 15 -170 26 -63 11 -126 22 -140 24 -14 3 -42 9 -62 14 -21
5 -38 7 -38 4 0 -3 -6 -1 -12 4 -7 6 -20 11 -28 11 -8 0 -35 6 -60 12 -25 7
-49 13 -55 14 -5 2 -30 8 -55 15 -25 7 -56 15 -69 18 -13 2 -34 9 -45 15 -12
6 -23 11 -26 10 -6 -3 -127 35 -155 48 -11 5 -40 16 -65 24 -166 53 -491 201
-686 311 -53 30 -100 55 -105 55 -5 0 -9 4 -9 9 0 5 -8 11 -17 14 -18 6 -73
37 -83 47 -3 3 -52 36 -110 74 -99 66 -293 207 -352 258 -15 13 -36 30 -46 38
-104 80 -345 311 -462 441 -36 40 -72 80 -82 90 -29 31 -186 227 -242 302
-266 360 -495 793 -647 1226 -17 47 -32 91 -33 96 -2 6 -5 17 -9 25 -11 32
-39 126 -43 147 -2 12 -9 34 -14 48 -5 14 -6 25 -3 25 4 0 2 5 -5 12 -7 7 -12
24 -12 38 0 15 -3 30 -7 34 -4 3 -8 12 -9 19 -9 61 -14 86 -18 98 -3 8 -8 25
-10 39 -3 14 -7 36 -10 50 -5 25 -15 86 -21 125 -2 11 -6 33 -9 49 -3 16 -8
50 -12 75 -3 25 -8 57 -10 71 -2 14 -6 57 -10 95 -3 39 -8 77 -9 86 -22 118
-22 634 0 844 3 25 7 65 10 89 7 64 34 253 45 311 9 49 13 68 25 130 3 17 8
37 11 45 3 8 7 27 9 42 2 15 9 46 16 70 6 24 13 54 16 67 2 13 9 33 14 43 6
11 8 22 5 25 -3 3 1 18 10 34 8 16 12 29 10 29 -7 0 114 352 125 366 5 6 6 14
2 18 -4 4 -3 10 2 14 6 4 25 45 44 92 86 212 228 484 376 717 79 125 272 391
314 434 9 9 30 33 46 55 17 21 48 58 70 82 22 24 51 56 64 70 36 42 213 222
216 222 2 0 21 17 42 39 60 60 212 190 323 276 81 62 87 67 105 83 7 6 18 12
24 12 6 0 11 3 11 8 0 4 23 21 50 37 27 17 50 33 50 38 0 4 7 7 15 7 8 0 15 5
15 10 0 6 6 10 14 10 8 0 16 3 18 8 3 8 165 112 174 112 3 0 18 8 32 19 50 34
468 251 485 251 3 0 21 7 41 15 20 8 37 14 38 13 2 -1 14 5 28 12 14 8 28 13
33 12 4 -1 7 3 7 10 0 6 3 9 6 5 3 -3 27 4 52 15 100 43 447 153 551 174 20 4
55 12 176 41 45 10 338 59 368 61 30 2 54 -19 312 -278z m-3558 -341 l2 -206
-204 0 c-138 0 -205 4 -208 11 -3 10 -1 399 2 402 0 1 92 1 204 0 l202 -1 2
-206z m1397 165 c-38 -24 -72 -44 -76 -44 -13 0 -282 -182 -383 -258 -94 -72
-108 -82 -138 -107 -7 -5 -35 -28 -62 -50 -28 -21 -52 -42 -55 -45 -3 -4 -42
-39 -87 -78 -220 -193 -466 -461 -655 -714 -90 -121 -107 -144 -128 -180 -12
-21 -26 -38 -32 -38 -5 0 -6 -4 -3 -10 3 -5 1 -10 -4 -10 -6 0 -11 -5 -11 -11
0 -6 -11 -25 -25 -43 -14 -18 -25 -38 -25 -44 0 -7 -4 -12 -9 -12 -5 0 -11 -6
-13 -12 -4 -18 -92 -167 -98 -168 -3 0 -5 289 -5 643 l0 642 288 0 c184 0 288
4 288 10 1 6 3 134 4 285 2 151 3 278 4 281 1 4 292 6 647 7 l646 0 -68 -44z
m6100 -244 c0 -157 3 -287 7 -290 4 -3 135 -5 291 -4 l284 0 0 -643 c1 -354
-3 -643 -8 -643 -4 0 -8 4 -8 9 0 12 -124 217 -150 248 -5 7 -10 14 -10 17 0
3 -19 33 -42 66 -24 34 -47 69 -53 78 -5 9 -13 19 -16 22 -3 3 -25 32 -49 65
-52 71 -187 241 -215 271 -11 12 -40 45 -65 75 -77 91 -329 339 -454 447 -133
114 -350 282 -365 282 -5 0 -11 4 -13 8 -4 12 -228 161 -303 203 -33 18 -61
37 -63 41 -2 4 -9 8 -15 8 -7 0 -20 7 -30 14 -15 12 79 14 630 13 l648 -2 -1
-285z m581 80 l0 -205 -208 -1 -208 0 1 207 1 206 207 -1 207 -1 0 -205z
m-8659 -1185 c2 -891 7 -810 -59 -955 -58 -130 -149 -383 -192 -538 -10 -34
-21 -64 -24 -66 -5 -3 -7 2314 -2 2359 1 7 51 11 139 10 l137 0 1 -810z m9105
805 c5 -22 3 -2377 -2 -2374 -4 2 -10 21 -15 41 -4 21 -8 40 -9 43 0 3 -14 46
-30 95 -16 50 -30 92 -30 95 -1 3 -4 12 -7 20 -4 8 -25 67 -48 130 -43 117
-62 161 -108 260 l-26 55 -1 810 c-1 446 0 815 2 820 3 10 272 15 274 5z
m-9313 -5150 c5 -14 10 -27 10 -30 1 -8 13 -43 24 -70 5 -14 12 -36 15 -50 2
-13 8 -29 12 -35 4 -5 18 -39 31 -75 23 -66 34 -91 88 -211 l29 -66 0 -811 c0
-447 -2 -813 -6 -813 -3 -1 -65 -3 -138 -3 -86 -2 -133 2 -136 8 -3 11 -1
2312 2 2351 1 11 15 -23 30 -75 16 -52 33 -106 39 -120z m9317 -977 l0 -1188
-140 0 -140 0 -1 815 c-1 723 1 819 15 850 9 19 18 37 21 40 3 3 6 11 8 18 1
7 11 32 21 55 32 71 95 232 90 232 -1 0 6 18 16 40 9 22 18 47 20 55 2 8 13
44 25 80 12 36 23 70 24 75 7 29 36 115 40 115 0 0 1 -534 1 -1187z m-8893 31
c12 -24 26 -44 30 -44 5 0 7 -4 4 -8 -4 -7 224 -359 242 -372 4 -3 18 -21 32
-40 13 -19 28 -39 32 -45 24 -31 154 -192 163 -201 5 -6 39 -44 75 -85 118
-133 310 -321 465 -454 32 -27 63 -54 69 -60 6 -5 29 -23 51 -40 22 -16 51
-40 65 -52 14 -13 28 -23 31 -23 3 0 19 -11 35 -25 30 -26 278 -198 325 -225
14 -8 67 -40 117 -70 l91 -55 -637 -3 c-350 -1 -641 0 -647 2 -6 2 -10 108
-10 290 1 251 -1 286 -15 287 -8 1 -139 2 -290 3 l-275 1 0 642 c0 685 -1 673
47 577z m8443 -566 c-1 -348 -2 -638 -3 -644 -1 -7 -87 -10 -274 -10 -150 1
-280 0 -288 -2 -13 -3 -15 -41 -15 -289 0 -181 -4 -287 -10 -289 -5 -2 -298
-3 -650 -2 -519 3 -635 5 -615 15 35 18 64 37 71 46 3 5 10 8 14 6 4 -1 14 3
24 9 9 7 39 26 66 44 175 111 440 301 510 365 11 10 36 31 55 47 161 131 421
390 570 566 30 36 60 70 65 76 14 16 46 58 100 129 25 33 52 68 60 77 7 9 19
27 26 40 7 12 17 28 23 34 23 24 41 50 55 76 8 15 22 37 33 47 10 11 18 22 18
25 0 9 65 111 73 114 4 2 7 8 7 13 0 5 11 26 23 47 13 20 31 49 41 65 9 15 18
27 19 27 2 0 3 -285 2 -632z m-8075 -1030 l0 -208 -207 2 -208 3 -1 200 c0
110 1 203 2 206 2 3 96 6 209 6 l205 -1 0 -208z m8076 3 l-1 -206 -207 -3
-206 -2 -1 192 c-1 105 -3 194 -6 196 -3 3 0 10 5 17 7 8 71 11 213 12 l204 0
-1 -206z m-4024 -514 l188 -189 -199 -199 c-110 -109 -202 -199 -205 -199 -3
0 -96 90 -206 200 l-199 199 201 201 c171 171 203 198 216 188 9 -7 100 -98
204 -201z m-2187 109 c39 -16 74 -33 79 -38 6 -4 18 -8 28 -8 10 0 18 -5 18
-10 0 -6 3 -9 8 -8 4 0 16 -2 27 -6 53 -20 102 -39 120 -48 12 -5 27 -10 35
-12 8 -2 22 -6 30 -9 40 -17 268 -89 289 -92 118 -16 -118 -21 -1142 -21 -650
0 -1184 3 -1187 7 -4 5 -5 245 -1 269 1 3 367 5 814 5 l812 0 70 -29z m5620
22 c8 -5 13 -232 6 -268 -2 -9 -2369 -6 -2378 3 -4 5 -3 7 2 6 35 -10 558 168
577 196 4 5 8 7 8 3 0 -3 37 10 83 31 l83 37 805 -1 c442 0 809 -3 814 -7z"/>
<path d="M1824 7971 c-2 -2 -4 -271 -4 -596 l0 -592 106 0 c124 -1 118 -6 128
127 4 47 9 99 11 115 3 17 7 54 9 83 3 29 8 57 12 64 5 7 3 8 -6 3 -8 -5 -11
-4 -7 2 8 13 15 55 22 138 7 79 16 165 20 191 2 11 23 54 48 95 l46 74 450 0
451 1 0 -2373 c0 -2274 -1 -2373 -18 -2390 -14 -14 -77 -94 -88 -111 -2 -5
-40 -10 -111 -17 -37 -4 -79 -8 -93 -10 -14 -2 -50 -7 -80 -10 -30 -4 -58 -9
-63 -12 -4 -2 -6 -61 -5 -131 l3 -126 655 -1 c360 0 663 1 672 3 11 3 16 13
16 32 -1 15 3 33 7 40 6 9 4 11 -4 5 -10 -6 -11 -3 -2 14 7 11 8 21 4 21 -5 0
-7 17 -5 38 1 20 3 44 2 52 0 8 0 23 -1 32 0 23 -6 26 -65 33 -27 3 -62 8 -79
10 -16 2 -64 7 -105 10 -41 3 -84 11 -95 16 -11 6 -41 39 -68 75 l-47 64 0
2137 c0 1176 0 2242 0 2369 l0 230 450 0 c389 -1 452 -3 461 -16 35 -54 82
-138 85 -155 2 -11 7 -49 10 -85 5 -70 11 -129 18 -200 3 -25 7 -70 10 -100 5
-60 15 -160 22 -230 2 -25 6 -54 8 -65 3 -11 5 -25 5 -31 1 -8 36 -11 111 -10
l110 1 0 595 0 595 -1501 0 c-825 0 -1502 -2 -1505 -4z"/>
<path d="M5930 7379 l0 -596 110 0 c105 0 110 1 111 21 1 11 3 30 4 41 2 11 6
49 9 85 8 80 15 142 20 195 3 22 8 67 11 100 9 94 14 136 21 195 3 30 7 67 8
81 1 14 23 59 48 100 l47 75 448 0 448 -1 3 -2369 2 -2368 -52 -67 c-29 -36
-52 -67 -53 -68 -2 -6 -180 -28 -292 -37 -66 -6 -74 -11 -64 -39 5 -12 5 -33
1 -47 -4 -14 -4 -34 0 -45 4 -11 4 -30 -1 -41 -4 -12 -5 -25 -2 -28 3 -3 6
-19 5 -36 0 -16 2 -30 6 -31 4 -1 303 -2 665 -3 429 0 661 2 666 9 11 13 11
244 1 250 -5 3 -32 7 -62 10 -29 3 -67 8 -84 10 -17 2 -55 7 -85 10 -30 3 -66
7 -81 9 -30 3 -37 9 -95 87 l-43 56 0 2369 0 2370 450 0 450 -1 37 -60 c20
-33 39 -62 42 -65 12 -10 21 -71 24 -145 1 -30 4 -55 7 -55 3 0 6 -17 6 -37 1
-21 4 -69 8 -108 4 -38 9 -90 11 -115 2 -25 6 -65 9 -90 6 -46 18 -175 19
-197 0 -16 -1 -16 125 -17 l102 -2 -2 596 -3 595 -1502 0 -1503 0 0 -596z"/>
<path d="M4660 6201 c0 -8 24 -81 37 -111 6 -16 11 -31 16 -52 1 -7 5 -17 8
-23 5 -8 39 -105 44 -125 1 -3 5 -14 9 -25 29 -75 116 -321 120 -340 2 -5 6
-18 9 -27 4 -10 10 -26 14 -35 3 -10 7 -22 9 -28 1 -5 14 -43 28 -84 14 -41
25 -75 23 -77 -1 -1 -36 -18 -77 -39 -99 -49 -170 -102 -253 -189 -90 -93 -97
-101 -97 -110 0 -4 -6 -14 -12 -21 -78 -87 -189 -349 -222 -520 -3 -16 -10
-55 -16 -85 -22 -115 -28 -273 -16 -420 10 -115 12 -132 19 -150 3 -8 8 -31
11 -50 2 -19 9 -50 15 -68 5 -18 11 -36 12 -40 4 -16 12 -39 24 -73 8 -20 11
-39 8 -43 -4 -3 -1 -6 5 -6 7 0 12 -6 12 -14 0 -13 17 -52 42 -96 4 -8 14 -26
20 -40 7 -14 27 -46 45 -72 18 -26 33 -52 33 -58 0 -5 3 -10 8 -10 4 0 14 -11
22 -24 47 -77 203 -220 299 -274 32 -18 142 -60 183 -69 41 -9 263 -9 303 0
99 23 218 66 235 87 3 3 19 14 35 24 17 11 37 25 45 32 8 8 35 32 60 53 l45
40 18 -42 c32 -72 56 -154 53 -181 -2 -14 2 -30 8 -34 8 -6 529 -9 557 -3 7 1
5 39 -3 47 -4 3 -3 17 2 30 6 15 6 24 0 24 -6 0 -6 9 0 25 5 14 6 25 1 25 -4
0 -6 11 -4 24 3 13 0 27 -6 30 -12 8 -211 23 -334 25 -16 1 -26 5 -22 11 3 6
1 10 -6 10 -7 0 -10 3 -7 6 4 3 -13 61 -37 128 l-42 123 34 62 c18 33 30 61
26 61 -5 0 -3 4 2 8 9 6 30 53 39 87 2 6 5 17 9 25 31 85 62 238 73 358 3 40
7 187 8 327 2 252 2 253 27 284 22 28 67 51 109 56 51 5 90 19 94 34 2 9 5 57
5 108 l0 92 -349 0 c-320 0 -350 -2 -351 -17 -4 -67 -3 -195 2 -197 3 -2 19
-7 35 -10 16 -3 34 -7 39 -9 6 -1 28 -6 50 -11 27 -5 51 -19 72 -43 l32 -35 1
-141 c0 -77 1 -148 1 -156 3 -63 -12 -306 -21 -350 -7 -30 -13 -62 -14 -70 -1
-8 -9 -33 -16 -55 -8 -22 -14 -44 -15 -49 0 -5 -5 -11 -10 -13 -6 -2 -17 18
-24 44 -8 27 -18 55 -22 63 -4 8 -13 31 -19 50 -7 19 -32 91 -56 160 -25 69
-52 145 -60 170 -8 25 -18 52 -21 60 -3 8 -7 20 -9 25 -1 6 -26 75 -54 155
-29 80 -56 159 -61 175 -5 17 -13 39 -18 50 -5 11 -21 54 -34 95 -29 85 -114
327 -124 350 -3 8 -7 20 -8 26 -4 15 -45 134 -56 159 -4 11 -15 40 -23 65 -8
25 -38 110 -66 190 -29 80 -58 163 -65 185 -8 22 -34 97 -58 168 l-45 127 223
0 223 0 26 -31 c14 -17 27 -34 27 -37 4 -20 10 -75 24 -229 3 -32 8 -67 10
-78 2 -11 4 -29 4 -40 1 -19 8 -20 106 -20 l105 0 0 348 0 347 -545 0 c-304 0
-545 -4 -545 -9z m432 -1252 c17 -46 39 -106 82 -226 14 -40 38 -106 53 -145
15 -40 29 -82 30 -92 2 -11 8 -25 14 -33 6 -7 8 -13 4 -13 -4 0 -3 -6 2 -12 6
-7 13 -25 17 -40 3 -15 11 -40 18 -55 6 -15 12 -32 14 -38 7 -27 84 -236 94
-254 6 -12 8 -21 4 -21 -3 0 -1 -7 6 -15 7 -8 9 -15 5 -15 -4 0 -2 -7 5 -15 7
-8 9 -15 5 -15 -4 0 -3 -6 3 -13 6 -7 13 -24 16 -39 2 -14 9 -35 14 -45 5 -10
19 -45 30 -78 11 -33 37 -105 57 -160 20 -55 41 -116 47 -135 5 -19 16 -48 23
-65 36 -86 36 -84 17 -107 -30 -36 -39 -46 -140 -129 -18 -15 -133 -67 -157
-71 -11 -2 -23 -7 -26 -12 -9 -11 -209 -18 -223 -8 -6 4 -24 9 -39 11 -59 6
-184 80 -262 155 -41 40 -75 76 -75 80 0 5 -11 21 -25 38 -21 25 -103 183
-125 243 -11 27 -31 97 -34 115 -1 8 -5 24 -9 35 -24 78 -36 307 -21 420 3 28
7 60 7 73 1 12 3 22 7 22 3 0 6 12 7 28 4 38 8 55 15 67 3 6 9 26 13 45 4 19
12 41 17 48 6 6 8 12 5 12 -7 0 86 182 102 202 62 75 81 96 112 127 41 42 87
81 94 81 3 0 14 8 24 17 29 24 134 82 146 79 6 -2 18 -23 27 -47z"/>
</g>
</svg>
